<svg xmlns="http://www.w3.org/2000/svg" width="12" height="22" viewBox="0 0 12 22" fill="none"><path d="M11.3587 0C11.393 0.0117627 11.4273 0.0245056 11.4616 0.0352881C11.7468 0.125469 11.8331 0.244076 11.8341 0.540104C11.8341 1.60953 11.836 2.67895 11.838 3.7474C11.838 4.0297 11.6831 4.21889 11.3988 4.22575C10.846 4.24045 10.2932 4.22771 9.7403 4.23947C9.44036 4.24535 9.13845 4.25907 8.84144 4.30024C8.33858 4.36984 8.01315 4.71978 7.94551 5.23538C7.92787 5.36771 7.92003 5.502 7.91905 5.63629C7.91611 6.34401 7.91807 7.05075 7.91807 7.75848C7.91807 7.80259 7.91807 7.84572 7.91807 7.90355C7.9759 7.90355 8.02393 7.90355 8.07098 7.90355C9.08747 7.90355 10.104 7.90355 11.1205 7.90355C11.5361 7.90355 11.7155 8.07705 11.7223 8.49462C11.7272 8.83966 11.7243 9.18568 11.7243 9.5317C11.7243 10.2639 11.7243 10.9952 11.7243 11.7274C11.7243 11.8166 11.7174 11.9058 11.7027 11.994C11.6615 12.2381 11.4753 12.393 11.2253 12.394C10.1726 12.394 9.11982 12.394 8.06608 12.394C8.02197 12.394 7.97786 12.394 7.92003 12.394V12.5449C7.92003 15.4807 7.92003 18.4155 7.92003 21.3512C7.92003 21.7669 7.73182 21.958 7.31915 21.958C6.18895 21.958 5.05875 21.958 3.92855 21.958C3.87562 21.958 3.82269 21.956 3.77074 21.9472C3.42864 21.8884 3.31101 21.7531 3.31003 21.4042C3.30905 18.4968 3.31003 15.5905 3.31003 12.6831C3.31003 12.5939 3.31003 12.5047 3.31003 12.394H3.15319C2.29158 12.394 1.42898 12.394 0.567363 12.394C0.169392 12.394 0.00177321 12.2283 0.00275344 11.8333C0.00275344 11.0158 0.00569411 10.1992 0.00569411 9.38173C0.00569411 9.0808 0.00569411 8.77987 0.00275344 8.47894C-0.00116746 8.07411 0.16449 7.90453 0.567363 7.90453C1.4329 7.90453 2.29942 7.90453 3.16496 7.90453C3.20907 7.90453 3.25318 7.90453 3.31003 7.90453C3.31297 7.85356 3.31787 7.81043 3.31787 7.7673C3.32179 6.8204 3.28945 5.87154 3.33552 4.92661C3.40119 3.59644 3.83935 2.39567 4.79703 1.43407C5.45574 0.773397 6.26149 0.362683 7.17408 0.1735C7.45834 0.114686 7.75241 0.0999829 8.04158 0.065675C8.0651 0.0627344 8.08765 0.0597937 8.11117 0.0431299C8.03961 0.0284265 7.96806 0.0147034 7.8965 0C9.05121 0 10.2059 0 11.3606 0L11.3587 0Z" fill="black"></path></svg>