<svg xmlns="http://www.w3.org/2000/svg" width="22" height="22" viewBox="0 0 22 22" fill="none"><path d="M10.9877 0.000655623C12.4761 0.000655623 13.9645 -0.000819529 15.4529 0.000655623C16.7334 0.00213078 17.9632 0.230779 19.0641 0.916725C20.8613 2.03637 21.7715 3.69739 21.951 5.78128C21.9854 6.17958 21.9834 6.5818 21.9839 6.98255C21.9864 9.79566 21.9849 12.6093 21.9854 15.4224C21.9854 16.7102 21.7676 17.9478 21.0964 19.0675C20.1297 20.6813 18.6648 21.562 16.8396 21.8693C16.367 21.9489 15.8802 21.9735 15.3998 21.975C12.423 21.9844 9.44612 21.9789 6.46926 21.9799C4.99952 21.9804 3.63549 21.6288 2.44259 20.7413C1.03087 19.691 0.285424 18.2547 0.0695604 16.5302C0.0189136 16.126 0.0090792 15.715 0.00858748 15.3068C0.00514546 12.2562 -0.0140315 9.2056 0.0194053 6.15548C0.0395657 4.32039 0.668964 2.71346 2.08757 1.48417C3.13198 0.578424 4.37455 0.0965405 5.73857 0.0498274C7.48613 -0.00967044 9.23763 0.0355676 10.9872 0.0355676C10.9872 0.0237663 10.9872 0.0124568 10.9872 0.000655623H10.9877ZM10.9862 19.9501C12.3846 19.9501 13.7826 19.9526 15.181 19.9486C15.5075 19.9477 15.8365 19.9462 16.1605 19.9098C17.7837 19.7269 19.012 18.9696 19.6783 17.4301C19.9482 16.8061 20.0362 16.1432 20.0357 15.4666C20.0348 12.5557 20.0367 9.64471 20.0333 6.73374C20.0333 6.4156 20.0289 6.09402 19.9871 5.77981C19.8145 4.48856 19.2746 3.4058 18.1387 2.69379C17.406 2.23453 16.5878 2.05112 15.7312 2.04964C12.6241 2.04472 9.51693 2.0462 6.40976 2.04964C6.14915 2.04964 5.88609 2.06685 5.62793 2.10324C4.06673 2.325 2.9171 3.09454 2.34179 4.60952C2.1156 5.20499 2.03741 5.82849 2.03692 6.46231C2.03495 9.47113 2.03299 12.4804 2.04036 15.4893C2.04135 15.8472 2.06987 16.2101 2.13182 16.5622C2.39096 18.0447 3.18312 19.1063 4.6209 19.6398C5.23407 19.8675 5.87232 19.9486 6.52188 19.9496C8.00981 19.9516 9.49824 19.9501 10.9862 19.9501Z" fill="black"></path><path d="M16.6593 10.9557C16.6574 14.0869 14.1088 16.6286 10.9751 16.6237C7.84578 16.6188 5.32082 14.0884 5.31885 10.9566C5.31688 7.82785 7.87037 5.27731 10.9987 5.28321C14.1073 5.28911 16.6613 7.84801 16.6593 10.9557ZM10.9923 14.5806C12.9916 14.5796 14.633 12.9383 14.629 10.9444C14.6251 8.9647 12.9862 7.32384 11.0036 7.31401C9.01263 7.30417 7.36636 8.94651 7.36243 10.9453C7.35849 12.9471 8.9905 14.5816 10.9923 14.5806Z" fill="black"></path><path d="M16.8852 6.42467C16.1722 6.42467 15.6087 5.86313 15.6057 5.15014C15.6023 4.42977 16.1766 3.8584 16.8989 3.86331C17.6031 3.86823 18.175 4.44747 18.171 5.15161C18.1676 5.85624 17.5933 6.42516 16.8852 6.42467Z" fill="black"></path></svg>