<svg xmlns="http://www.w3.org/2000/svg" width="21" height="22" viewBox="0 0 21 22" fill="none"><path d="M8.83512 13.6305C8.62324 13.8764 8.4183 14.114 8.21366 14.352C7.17742 15.5574 6.14103 16.7625 5.10526 17.9684C4.33572 18.8644 3.56729 19.7611 2.79775 20.6571C2.49576 21.0087 2.19267 21.3595 1.88817 21.7091C1.87052 21.7294 1.83665 21.7467 1.81019 21.7467C1.22213 21.7488 0.633905 21.7483 0.0458415 21.7481C0.0362321 21.7481 0.0267803 21.7455 0.00378074 21.7422C2.68133 18.6378 5.35196 15.5414 8.02652 12.4403C5.35385 8.51824 2.68228 4.59834 0 0.662394H0.0986144C2.10194 0.662394 4.1051 0.662708 6.10842 0.660978C6.16828 0.660978 6.20152 0.680171 6.23507 0.729099C6.99406 1.83289 7.75509 2.93526 8.51534 4.03826C9.16988 4.98788 9.82363 5.93812 10.478 6.88789C10.8142 7.37575 11.1507 7.8633 11.4872 8.35085C11.4944 8.36139 11.5032 8.37083 11.5185 8.38955C11.61 8.28461 11.699 8.18361 11.7871 8.08166C12.844 6.85595 13.9007 5.63007 14.9574 4.40436C15.7816 3.4483 16.6056 2.49224 17.4299 1.53617C17.6966 1.22672 17.9629 0.917102 18.2315 0.609375C18.2514 0.586563 18.2873 0.564538 18.3158 0.56438C18.8829 0.561863 19.45 0.562493 20.0171 0.562807C20.0269 0.562807 20.0365 0.566583 20.0575 0.570988C17.4785 3.5718 14.9054 6.566 12.3259 9.5676C15.166 13.6881 18.0061 17.8086 20.8576 21.9457C20.8102 21.9457 20.7824 21.9457 20.7547 21.9457C18.6989 21.9457 16.6431 21.9454 14.5872 21.9473C14.5231 21.9473 14.488 21.9243 14.4541 21.8743C13.7736 20.8725 13.0916 19.8713 12.4097 18.8704C11.6288 17.7242 10.8477 16.5783 10.0667 15.4323C9.6724 14.854 9.27794 14.2757 8.88348 13.6975C8.87041 13.6783 8.85623 13.6599 8.83497 13.6307L8.83512 13.6305ZM18.2745 20.5301C15.9623 17.2422 13.6622 13.9714 11.3577 10.6944C10.8257 11.3136 10.3039 11.9207 9.78251 12.5275C9.80157 12.5563 9.81559 12.5785 9.83056 12.5997C10.7502 13.9072 11.67 15.2146 12.5896 16.5221C13.5121 17.8339 14.4347 19.1457 15.3555 20.4587C15.3931 20.5124 15.4314 20.5315 15.4963 20.5314C16.3887 20.5292 17.2811 20.53 18.1737 20.53C18.2011 20.53 18.2287 20.53 18.2747 20.53L18.2745 20.5301ZM8.96068 11.3627C8.97863 11.3395 8.98761 11.3268 8.99785 11.3148C9.49864 10.7338 9.99896 10.1525 10.5015 9.57294C10.5371 9.53188 10.5235 9.50624 10.499 9.47147C9.61947 8.22216 8.74029 6.97253 7.86142 5.7229C7.00666 4.50756 6.15174 3.29207 5.2984 2.0758C5.26752 2.0319 5.23554 2.01617 5.18293 2.01633C4.27996 2.0179 3.37699 2.01743 2.47402 2.01775C2.45181 2.01775 2.42976 2.02042 2.39289 2.02294C4.58415 5.13891 6.76769 8.24387 8.96099 11.3628L8.96068 11.3627Z" fill="black"></path></svg>