<svg xmlns="http://www.w3.org/2000/svg" width="30" height="21" viewBox="0 0 30 21" fill="none"><path d="M14.9416 0.000246579C16.3323 0.0170139 17.4576 0.0184934 18.5825 0.0475897C19.8297 0.0798916 21.0764 0.135865 22.3231 0.184688C23.5045 0.231044 24.6827 0.314881 25.8542 0.480336C26.494 0.57083 27.1102 0.730367 27.6581 1.08889C28.5542 1.6755 29.1038 2.50031 29.3317 3.54309C29.5139 4.37727 29.6298 5.22131 29.6904 6.07201C29.7511 6.92196 29.8125 7.77291 29.8364 8.62434C29.868 9.73962 29.8924 10.8566 29.8662 11.9714C29.8342 13.3313 29.7555 14.6909 29.5772 16.0414C29.4927 16.683 29.4172 17.3308 29.198 17.9426C28.6888 19.3626 27.6742 20.2054 26.1932 20.4767C25.2232 20.6542 24.2405 20.7269 23.2567 20.779C22.2899 20.8302 21.3228 20.8803 20.3552 20.9202C19.6744 20.9484 18.9928 20.9686 18.3115 20.9745C16.677 20.9888 15.0424 21.008 13.4078 20.9964C12.0369 20.9868 10.6659 20.9437 9.29539 20.9015C8.3685 20.8732 7.44087 20.8428 6.51669 20.773C5.58462 20.7028 4.65305 20.6073 3.72739 20.4774C2.67105 20.3292 1.81838 19.8074 1.18763 18.9392C0.818251 18.4308 0.604961 17.855 0.506329 17.2418C0.389204 16.5141 0.281449 15.7838 0.205503 15.0509C0.0252535 13.3113 -0.0146923 11.5646 0.0042943 9.81606C0.0181027 8.54445 0.0822132 7.2758 0.197119 6.00888C0.265421 5.25706 0.357888 4.50993 0.50263 3.76896C0.621481 3.15942 0.816525 2.5807 1.18861 2.07274C1.81665 1.21563 2.65946 0.709408 3.70322 0.533104C4.66735 0.370115 5.6401 0.289237 6.61532 0.234743C7.36911 0.192825 8.12291 0.151646 8.87694 0.117865C9.43446 0.0929603 9.99247 0.0729874 10.5505 0.0636174C12.1024 0.03748 13.6544 0.0182468 14.9416 0V0.000246579ZM19.7018 10.5085C17.1608 9.03515 14.659 7.58427 12.1567 6.13414C12.1076 6.10554 12.0546 6.0836 12.0028 6.05968C11.9974 6.05721 11.9878 6.06239 11.9804 6.06535C11.9727 6.06831 11.9658 6.07275 11.9636 6.07398V14.9905C14.5492 13.4928 17.1053 12.0123 19.7018 10.5085Z" fill="black"></path></svg>